<svg width="24" height="24" viewBox="0 0 24 24" fill="none" xmlns="http://www.w3.org/2000/svg">
<g clip-path="url(#clip0_6_14)">
<path d="M0 1.5C0 0.671573 0.671573 0 1.5 0H22.5C23.3284 0 24 0.671573 24 1.5V22.5C24 23.3284 23.3284 24 22.5 24H1.5C0.671573 24 0 23.3284 0 22.5V1.5Z" fill="white"/>
<path d="M5.28951 7H7.28897L8.57848 17.7218H6.88328L6.69493 15.389H5.79662L5.60826 17.7218H4L5.28951 7ZM6.0864 11.7668L5.91253 13.9691H6.57902L6.39066 11.7668L6.26026 9.91226H6.2168L6.0864 11.7668Z" fill="#0054FA"/>
<path d="M12.1314 17.7218H10.4072V7H12.6675C13.8991 7 14.6525 7.72444 14.6525 9.02844V11.6654C14.6525 12.9549 13.8991 13.6794 12.6675 13.6794H12.1314V17.7218ZM12.1459 12.3899H12.5226C12.8124 12.3899 12.9283 12.1291 12.9283 11.6654V9.02844C12.9283 8.55031 12.8124 8.28951 12.5226 8.28951H12.1459V12.3899Z" fill="#0054FA"/>
<path d="M16.6386 17.7218V7H20V8.41991H18.3628V11.593H19.8261V13.0129H18.3628V16.3018H20V17.7218H16.6386Z" fill="#0054FA"/>
</g>
<defs>
<clipPath id="clip0_6_14">
<rect width="24" height="24" fill="white"/>
</clipPath>
</defs>
</svg>
