<svg width="24" height="24" viewBox="0 0 24 24" fill="none" xmlns="http://www.w3.org/2000/svg">
<g clip-path="url(#clip0_6_11)">
<path d="M22.5879 0C23.3676 0 24 0.632413 24 1.41211V22.5879C24 23.3676 23.3676 24 22.5879 24H1.41211C0.632413 24 0 23.3676 0 22.5879V1.41211C0 0.632413 0.632413 0 1.41211 0H22.5879Z" fill="#12AAFF"/>
<path d="M12.077 2.64706C12.3253 2.64759 12.5736 2.70858 12.7918 2.83652L19.7381 6.84238C20.184 7.09933 20.4567 7.56776 20.4569 8.08163V16.0943C20.4569 16.6083 20.1841 17.0776 19.7381 17.3346L18.5018 18.0475L18.5067 18.0602L16.6844 19.1109L16.6795 19.0992L15.9559 19.5172L15.9588 19.526L14.1375 20.5768L14.1346 20.5689L12.7996 21.3404C12.5729 21.4689 12.3303 21.5299 12.0809 21.5299C11.8316 21.5298 11.5822 21.4689 11.3631 21.3404L10.034 20.5728L10.033 20.5768L8.21468 19.5279L8.21077 19.5338L7.48518 19.1178L7.48909 19.1041L7.48714 19.1031L7.48518 19.1109L5.66389 18.0602L5.66585 18.0514L4.42366 17.3346C3.97773 17.0775 3.70589 16.6083 3.70589 16.0943V8.08163C3.70601 7.56787 3.97795 7.09936 4.42366 6.84238L11.3631 2.83652C11.5886 2.70875 11.829 2.64775 12.077 2.64706ZM12.0809 3.81113C12.0357 3.81121 11.9906 3.82661 11.953 3.84921L5.0135 7.85507C4.93801 7.90037 4.88571 7.99104 4.88557 8.08163V16.1021C4.8856 16.1928 4.93046 16.2833 5.0135 16.3287L6.0721 16.94L9.43538 7.71933C9.48072 7.59842 9.60184 7.51527 9.7303 7.51523H11.492L11.4989 7.50742C11.6047 7.50742 11.6802 7.6135 11.6424 7.71933L8.11995 17.3687L8.79475 17.9234L12.5194 7.71933C12.5647 7.59844 12.6859 7.51531 12.8143 7.51523H14.576V7.50742C14.6817 7.50761 14.7573 7.6136 14.7196 7.71933L10.4393 19.4605L11.953 20.3355C11.9906 20.358 12.0358 20.3726 12.0809 20.3727C12.1262 20.3727 12.172 20.3582 12.2098 20.3355L13.7293 19.4576L12.5653 16.2603C12.5427 16.1849 12.5426 16.1095 12.5653 16.0416L13.4793 13.5318C13.5322 13.3959 13.7212 13.396 13.7742 13.5318L15.5506 18.4059L16.2742 17.9879L14.1073 12.0426C14.0847 11.9671 14.0846 11.8918 14.1073 11.8238L15.0213 9.31406C15.0742 9.17803 15.2633 9.17811 15.3162 9.31406V9.32187L18.0955 16.9361L19.1492 16.3287C19.2246 16.2833 19.2771 16.1927 19.2772 16.1021V8.08945C19.2771 7.99888 19.2322 7.90828 19.1492 7.86288L12.2098 3.85605C12.172 3.83343 12.1262 3.81894 12.0809 3.81894V3.81113Z" fill="#213147"/>
</g>
<defs>
<clipPath id="clip0_6_11">
<rect width="24" height="24" fill="white"/>
</clipPath>
</defs>
</svg>
