<svg width="24" height="24" viewBox="0 0 24 24" fill="none" xmlns="http://www.w3.org/2000/svg">
<g clip-path="url(#clip0_6_15)">
<path d="M0 1.5C0 0.671573 0.671573 0 1.5 0H22.5C23.3284 0 24 0.671573 24 1.5V22.5C24 23.3284 23.3284 24 22.5 24H1.5C0.671573 24 0 23.3284 0 22.5V1.5Z" fill="#3368EF"/>
<g clip-path="url(#clip1_6_15)">
<path d="M2.81612 7H11.5713C11.7297 7 11.858 7.11053 11.858 7.24704V10.7822C11.858 11.003 11.7088 11.2033 11.4763 11.2951L10.3735 11.7313C10.3196 11.7526 10.2849 11.799 10.2849 11.8503C10.2849 11.901 10.3185 11.9467 10.3716 11.9684L11.4843 12.4243C11.7126 12.5178 11.858 12.7161 11.858 12.9342V16.7526C11.858 16.8891 11.7297 16.9997 11.5713 16.9997H2.81612C2.36531 16.9997 2 16.6849 2 16.2964V7.70329C2 7.3148 2.36531 7 2.81612 7ZM7.56477 13.6664C7.78805 13.6664 7.94723 13.6405 8.0419 13.5888C8.14497 13.5368 8.19651 13.4408 8.19651 13.3V13.2776C8.19651 13.1296 8.14077 13.0257 8.02892 12.9664C7.92585 12.9072 7.74954 12.8776 7.50026 12.8776H5.868V13.6664H7.56477ZM7.48764 10.9664C7.88313 10.9664 8.08087 10.8441 8.08087 10.5997V10.5441C8.08087 10.4033 8.02933 10.3069 7.92626 10.2553C7.83159 10.1961 7.67277 10.1664 7.44908 10.1664H5.86838V10.9664H7.48805H7.48764ZM12.6001 12.8444H16.2081C16.2081 13.0964 16.2596 13.2704 16.3627 13.3668C16.4746 13.4632 16.6333 13.5112 16.8398 13.5112C17.1922 13.5112 17.3686 13.3371 17.3686 12.9888C17.3686 12.8184 17.3083 12.6964 17.188 12.622C17.0762 12.548 16.9044 12.5109 16.6723 12.5109H14.6866V11.222L17.7423 10.5664H12.6001C12.4566 10.5664 12.3401 10.4661 12.3401 10.3424V7.18717C12.3401 7.08388 12.4374 7 12.5573 7H21.0163C21.4671 7 21.8324 7.3148 21.8324 7.70329V10.225C21.8324 10.5099 21.6053 10.7576 21.2839 10.8237L17.9358 11.5112L18.0904 11.5336H21.2858C21.6801 11.5336 22 11.8092 22 12.149V16.2967C22 16.6852 21.6347 17 21.1839 17H12.5573C12.4374 17 12.3401 16.9161 12.3401 16.8129V13.0684C12.3401 12.9448 12.4566 12.8444 12.6001 12.8444Z" fill="white"/>
</g>
</g>
<defs>
<clipPath id="clip0_6_15">
<rect width="24" height="24" fill="white"/>
</clipPath>
<clipPath id="clip1_6_15">
<rect width="20" height="10" fill="white" transform="translate(2 7)"/>
</clipPath>
</defs>
</svg>
