<svg width="24" height="25" viewBox="0 0 24 25" fill="none" xmlns="http://www.w3.org/2000/svg">
<path d="M0 1.5625C0 0.699555 0.671573 0 1.5 0H22.5C23.3284 0 24 0.699555 24 1.5625V23.4375C24 24.3004 23.3284 25 22.5 25H1.5C0.671573 25 0 24.3004 0 23.4375V1.5625Z" fill="#814625"/>
<path d="M15.3162 14.5643V13.7008C15.7965 13.5185 16.1462 12.9524 16.1462 12.2824C16.1462 11.6124 15.7965 11.0447 15.3162 10.864V10.0005C15.7685 9.8294 16.1058 9.31608 16.1431 8.69565H15.5929V8.95948C15.5929 9.16258 15.481 9.34168 15.3162 9.43122V9.30809C15.3162 9.12739 15.1732 8.98027 14.9976 8.98027H14.9696C14.794 8.98027 14.651 9.12739 14.651 9.30809V9.43122C14.4863 9.34168 14.3744 9.16418 14.3744 8.95948V8.69565H13.8242C13.8615 9.31608 14.1987 9.8294 14.651 10.0005V10.864C14.1723 11.0447 13.8211 11.6108 13.8211 12.2824C13.8211 12.954 14.1708 13.5201 14.651 13.7008V14.5643C14.1987 14.7353 13.8615 15.2487 13.8242 15.8691H14.3744V15.6053C14.3744 15.4022 14.4863 15.2231 14.651 15.1335V15.2567C14.651 15.4374 14.794 15.5845 14.9696 15.5845H14.9976C15.1732 15.5845 15.3162 15.4374 15.3162 15.2567V15.1335C15.481 15.2231 15.5929 15.4006 15.5929 15.6053V15.8691H16.1431C16.1058 15.2487 15.7685 14.7353 15.3162 14.5643ZM14.3744 12.6598V11.9034C14.3744 11.7003 14.4863 11.5212 14.651 11.4317V11.5548C14.651 11.7355 14.794 11.8826 14.9696 11.8826H14.9976C15.1732 11.8826 15.3162 11.7355 15.3162 11.5548V11.4317C15.481 11.5212 15.5929 11.6987 15.5929 11.9034V12.6598C15.5929 12.8628 15.481 13.0419 15.3162 13.1315V13.0084C15.3162 12.8277 15.1732 12.6805 14.9976 12.6805H14.9696C14.794 12.6805 14.651 12.8277 14.651 13.0084V13.1315C14.4878 13.0419 14.3744 12.8645 14.3744 12.6598Z" fill="white"/>
<path d="M18.692 12.7413V11.8218C19.1722 11.6395 19.5219 11.0735 19.5219 10.4034C19.5219 9.73345 19.1722 9.16576 18.692 8.98508V8.69565H18.0283V8.98508C17.548 9.16736 17.1983 9.73345 17.1983 10.4034C17.1983 11.0735 17.548 11.6411 18.0283 11.8218V12.7413C17.548 12.9236 17.1983 13.4897 17.1983 14.1597C17.1983 14.8297 17.548 15.3974 18.0283 15.5781V15.8675H18.692V15.5781C19.1722 15.3958 19.5219 14.8297 19.5219 14.1597C19.5219 13.4897 19.1722 12.9236 18.692 12.7413ZM17.7501 10.7808V10.0245C17.7501 9.82138 17.862 9.64228 18.0267 9.55274V9.67587C18.0267 9.85657 18.1697 10.0037 18.3454 10.0037H18.3718C18.5474 10.0037 18.6904 9.85657 18.6904 9.67587V9.55274C18.8551 9.64228 18.967 9.81978 18.967 10.0245V10.7808C18.967 10.9839 18.8551 11.163 18.6904 11.2526V11.1294C18.6904 10.9487 18.5474 10.8016 18.3718 10.8016H18.3438C18.1682 10.8016 18.0252 10.9487 18.0252 11.1294V11.2526C17.8636 11.163 17.7501 10.9855 17.7501 10.7808ZM18.9686 14.5387C18.9686 14.7418 18.8567 14.9208 18.692 15.0104V14.8297C18.692 14.649 18.549 14.5019 18.3733 14.5019H18.3469C18.1713 14.5019 18.0283 14.649 18.0283 14.8297V15.0104C17.8636 14.9208 17.7517 14.7433 17.7517 14.5387V13.7823C17.7517 13.5792 17.8636 13.4001 18.0283 13.3106V13.3761C18.0283 13.5568 18.1713 13.704 18.3469 13.704H18.3749C18.5505 13.704 18.6935 13.5568 18.6935 13.3761V13.3106C18.8583 13.4001 18.9701 13.5776 18.9701 13.7823V14.5387H18.9686Z" fill="white"/>
<path d="M11.4798 11.5501C11.4736 11.5133 11.4658 11.4781 11.4533 11.4446C11.458 11.4366 12.49 9.95741 11.5342 9.04274C10.5799 8.12806 9.46552 9.321 9.45931 9.32738C9.28213 9.2698 9.10338 9.23464 8.9262 9.21863C8.9262 9.21863 8.9262 9.21863 8.92466 9.21863C8.56098 9.15627 8.05119 9.21863 8.05119 9.21863C7.87557 9.23464 7.69839 9.2698 7.52274 9.32578C7.51654 9.3194 6.40218 8.12649 5.44789 9.04113C4.4936 9.95581 5.52404 11.4366 5.52871 11.443C5.51783 11.4781 5.50849 11.5133 5.50228 11.5485C5.39971 12.1817 4.69565 12.3768 4.69565 13.4802C4.69565 14.6043 5.43081 15.4902 6.93216 15.4902H7.54763C7.55074 15.4934 7.78852 15.842 8.27966 15.8628C8.27966 15.8628 8.39311 15.8756 8.65421 15.866C9.17488 15.866 9.42821 15.4966 9.42978 15.4918H10.0452C11.5466 15.4918 12.2817 14.6059 12.2817 13.4818C12.2864 12.38 11.5823 12.1833 11.4798 11.5501Z" fill="white"/>
</svg>
