<svg width="24" height="24" viewBox="0 0 24 24" fill="none" xmlns="http://www.w3.org/2000/svg">
<g clip-path="url(#clip0_7_60)">
<path d="M0 1.5C0 0.671573 0.671573 0 1.5 0H22.5C23.3284 0 24 0.671573 24 1.5V22.5C24 23.3284 23.3284 24 22.5 24H1.5C0.671573 24 0 23.3284 0 22.5V1.5Z" fill="#C3C3C3"/>
<path d="M11.9982 2L11.8671 2.43299V14.9962L11.9982 15.1234L17.9963 11.6763L11.9982 2Z" fill="#E2E2E2"/>
<path d="M11.9982 2L6 11.6763L11.9982 15.1234L11.9982 9.02553L11.9982 2Z" fill="white"/>
<path d="M11.9982 16.2275L11.9243 16.3151V20.7903L11.9982 21L18 12.7822L11.9982 16.2275Z" fill="#E2E2E2"/>
<path d="M11.9982 21V16.2275L6 12.7822L11.9982 21Z" fill="white"/>
<path d="M11.9982 15.1234L17.9963 11.6763L11.9982 9.02553L11.9982 15.1234Z" fill="#B7B7B7"/>
<path d="M6 11.6763L11.9982 15.1234L11.9982 9.02553L6 11.6763Z" fill="#E2E2E2"/>
</g>
<defs>
<clipPath id="clip0_7_60">
<rect width="24" height="24" fill="white"/>
</clipPath>
</defs>
</svg>
