<svg width="24" height="24" viewBox="0 0 24 24" fill="none" xmlns="http://www.w3.org/2000/svg">
<g clip-path="url(#clip0_6_5)">
<mask id="mask0_6_5" style="mask-type:luminance" maskUnits="userSpaceOnUse" x="0" y="0" width="24" height="24">
<path d="M24 12C24 5.37258 18.6274 0 12 0C5.37258 0 0 5.37258 0 12C0 18.6274 5.37258 24 12 24C18.6274 24 24 18.6274 24 12Z" fill="white"/>
</mask>
<g mask="url(#mask0_6_5)">
<path d="M24 12C24 5.37258 18.6274 0 12 0C5.37258 0 0 5.37258 0 12C0 18.6274 5.37258 24 12 24C18.6274 24 24 18.6274 24 12Z" fill="url(#paint0_radial_6_5)"/>
<path d="M20.1602 8.25432C20.11 8.54806 20.0511 8.69046 19.9823 8.85537L19.9822 8.85575C19.9078 9.03437 19.8235 9.23718 19.7472 9.63955C19.7168 9.80058 19.7017 9.9188 19.6885 10.0229L19.6876 10.0294L19.6868 10.0355C19.6656 10.2022 19.6513 10.3146 19.5836 10.5145C19.5286 10.6778 19.4366 10.9503 19.2152 11.2438C19.0363 11.4812 18.7369 11.8787 18.3374 11.9263C18.3027 11.9286 18.2302 11.9322 18.2005 11.9171C17.0671 11.3383 16.0933 10.9107 15.7563 10.8147C15.3643 10.7036 15.4144 9.84882 15.4588 9.09465C15.4787 8.75759 15.4975 8.43889 15.4817 8.16598C15.4266 7.21392 15.2581 6.17183 14.4289 5.66378C13.9339 5.36061 13.2953 5.27162 12.6852 5.27033C12.7983 5.21652 12.9244 5.14345 13.0618 5.06352L13.066 5.06106C13.4252 4.85308 13.8712 4.59479 14.3143 4.54939C14.4591 4.53504 14.6015 4.51835 14.742 4.5027C15.6352 4.40156 16.407 4.31464 17.2209 4.59337C17.5899 4.71999 18.3468 5.14228 18.5423 5.53431C18.6799 5.8111 18.912 6.02684 19.3752 6.45741C19.6163 6.68168 19.7751 6.81219 19.8914 6.90764L19.8967 6.91204C20.0599 7.04629 20.0921 7.07436 20.1408 7.17356C20.2908 7.47945 20.2361 7.80435 20.1602 8.25432Z" fill="white"/>
<path d="M16.0371 12.1681C16.0908 12.1866 16.1108 12.2518 16.0796 12.2992C15.9586 12.4828 15.8199 12.7348 15.6537 13.0429C15.5757 13.1881 15.5019 13.3252 15.4399 13.4322C15.2203 13.8093 15.2025 14.1267 15.1885 14.3815C15.1734 14.648 15.1599 14.7703 15.0007 14.8765C14.8693 14.9646 14.7346 14.994 13.8014 15.1361C13.6386 15.1613 13.5663 15.1929 13.5028 15.2206C13.4855 15.2281 13.4683 15.2356 13.4486 15.2429C13.3947 15.2631 13.3419 15.2172 13.3451 15.1599C13.3525 15.0254 13.3573 14.8574 13.3578 14.646V14.6055C13.3627 14.4227 13.3551 14.2743 13.3485 14.1547C13.3362 13.9164 13.3347 13.8161 13.3982 13.7123C13.4762 13.587 13.5369 13.5487 13.6369 13.4853C13.7765 13.3976 13.9679 13.277 14.2512 12.8877C14.4017 12.6815 14.4351 12.5697 14.4559 12.4731C14.465 12.433 14.4682 12.418 14.5841 12.3302C14.7066 12.2372 15.08 11.9543 15.5579 12.0347C15.6901 12.057 15.8585 12.1064 16.0371 12.1681Z" fill="white"/>
<path d="M12.324 16.4706C12.3037 16.4971 12.2799 16.5094 12.2456 16.5111C12.1481 16.5152 12.0795 16.4911 12.0342 16.4365C11.9379 16.3193 11.9509 16.0839 11.9734 15.9463L12.368 15.8411C12.3989 16.05 12.4134 16.3543 12.324 16.4706Z" fill="white"/>
<path d="M12.356 15.0465C12.3494 15.104 12.3421 15.1688 12.3424 15.2366C12.3429 15.2618 12.3431 15.2873 12.3439 15.312C12.3447 15.3765 12.3473 15.479 12.3384 15.5255C12.2151 15.5704 12.1098 15.5704 11.9714 15.568C11.9694 15.528 11.9719 15.4684 11.9735 15.4281C11.9743 15.3971 11.976 15.3662 11.9763 15.3367C11.9767 15.304 11.9763 15.2718 11.9763 15.2396C11.9758 15.1636 11.9748 15.0392 11.9934 15.0026C12.0305 14.9972 12.0686 14.989 12.1093 14.9797C12.1909 14.9621 12.2974 14.9396 12.3651 14.9498C12.3641 14.9762 12.36 15.0154 12.356 15.0465Z" fill="white"/>
<path d="M11.6258 16.3492C11.6068 16.5515 11.5443 16.8016 11.3546 16.8396C11.2692 16.8572 11.228 16.8315 11.202 16.807C11.0738 16.6883 11.0534 16.3295 11.0712 16.0729C11.1566 16.0745 11.2685 16.0553 11.4009 16.0297C11.4817 16.0137 11.5622 15.9958 11.6262 15.9811C11.6336 16.076 11.6389 16.2116 11.6258 16.3492Z" fill="white"/>
<path d="M11.5362 15.6229L11.1081 15.7731C11.1298 15.6069 11.1588 15.373 11.169 15.2177C11.1764 15.1083 11.2061 15.0748 11.2147 15.0675C11.2175 15.0651 11.2232 15.0599 11.2391 15.0599C11.2416 15.0599 11.244 15.0603 11.2467 15.0603L11.2558 15.0616L11.5262 15.0468C11.5377 15.174 11.5377 15.4532 11.5362 15.6229Z" fill="white"/>
<path d="M10.8445 15.4898C10.8203 15.5542 10.7917 15.7367 10.7739 15.8652L10.2376 15.8489C10.2679 15.6828 10.3098 15.5138 10.3558 15.3791C10.4024 15.2452 10.4526 15.1449 10.4988 15.1167C10.5526 15.0844 10.671 15.0771 10.7436 15.1391C10.8616 15.2397 10.8942 15.3548 10.8445 15.4898Z" fill="white"/>
<path d="M10.6443 17.1311C10.6027 17.1879 10.5566 17.2168 10.4994 17.2229C10.4411 17.2294 10.3957 17.2164 10.3595 17.1825C10.1911 17.027 10.2048 16.5177 10.211 16.2729C10.4333 16.2222 10.6734 16.1791 10.7872 16.1725C10.8043 16.3775 10.8092 16.9067 10.6443 17.1311Z" fill="white"/>
<path d="M9.94441 15.8344C9.91829 15.9042 9.89293 15.9702 9.87379 16.0287C9.81145 16.0482 9.6208 16.0311 9.42615 15.9882L9.56001 15.1442C9.77989 15.0859 10.0349 15.0672 10.0966 15.1325C10.1779 15.2187 10.0146 15.6505 9.94441 15.8344Z" fill="white"/>
<path d="M9.70177 17.2596C9.59779 17.3878 9.4418 17.4476 9.22425 17.4453C9.0737 17.4429 9.01989 17.3857 8.99299 17.3429C8.87219 17.1516 8.9904 16.7006 9.10888 16.4125L9.83525 16.4561C9.84262 16.5067 9.8487 16.5683 9.85155 16.6353C9.85957 16.8403 9.83383 17.0956 9.70177 17.2596Z" fill="white"/>
<path d="M15.7044 11.1354C15.0505 10.9501 15.1067 9.99394 15.1612 9.06981C15.1805 8.74284 15.1987 8.43359 15.1838 8.18086C15.1336 7.31583 14.9881 6.37372 14.2924 5.94729C13.5441 5.48969 12.3199 5.59394 11.5645 5.69004C11.5639 5.69017 11.5632 5.69055 11.5626 5.69068C11.5622 5.69068 11.5619 5.69068 11.5617 5.69081C11.285 5.77462 11.0262 5.82894 10.8256 5.81834C10.3799 5.79531 10.0331 5.60765 9.72776 5.443C9.48952 5.31392 9.28167 5.20242 9.08598 5.20242C9.07563 5.20242 9.06477 5.20243 9.05403 5.20281C8.46851 5.24084 8.19935 5.38389 7.9549 5.60208C7.89347 5.6564 7.81845 5.81407 7.57296 6.52143C7.44905 6.87892 7.42616 7.07448 7.40314 7.26461C7.38245 7.43832 7.36136 7.61693 7.26901 7.88337C7.20473 8.06729 7.15726 8.22587 7.11135 8.37875C6.99029 8.785 6.89458 9.10499 6.60705 9.48551C6.5733 9.53052 6.53152 9.59674 6.48315 9.67214C6.41796 9.77484 6.33725 9.90249 6.23081 10.0503C6.15566 10.1544 5.98312 10.5442 5.99256 10.6629C6.00666 10.852 6.06809 10.9693 6.13846 11.1063C6.20843 11.2413 6.2881 11.3942 6.30259 11.6053L6.30505 11.6395C6.33066 11.9744 6.28293 12.1424 5.64593 12.7114C5.23864 13.0758 4.94931 13.4269 4.75413 13.6845C4.73693 13.7073 4.75931 13.741 4.78776 13.7387C4.79436 13.7378 4.80096 13.7374 4.80704 13.7374C4.81932 13.7364 4.83148 13.736 4.84364 13.736C4.8558 13.736 4.86808 13.7364 4.88011 13.7369C4.8924 13.7374 4.90417 13.7383 4.9162 13.7401C5.07024 13.7577 5.22041 13.8229 5.32879 13.9352C5.34768 13.9547 5.37703 13.96 5.40213 13.9499C5.50586 13.9067 5.6198 13.9138 5.72871 13.9241C5.86322 13.9365 5.99903 13.9767 6.08827 14.0635C6.11517 14.0897 6.15359 14.1031 6.19032 14.0947C6.29573 14.0707 6.40632 14.0729 6.50889 14.1102C6.58985 14.1403 6.65789 14.1879 6.71195 14.2478C6.74972 14.2897 6.81671 14.2977 6.86405 14.2672C6.89354 14.2482 6.92601 14.2321 6.96209 14.22C7.10036 14.173 7.25337 14.1998 7.38762 14.248C7.45371 14.2718 7.52304 14.2931 7.58266 14.3329C7.69221 14.4058 7.75908 14.5124 7.80176 14.6315C7.82595 14.6987 7.91636 14.7219 7.9712 14.6763C8.06976 14.5943 8.14775 14.5805 8.22639 14.6154C8.26648 14.6335 8.29442 14.6583 8.31317 14.6895C8.3459 14.7437 8.41251 14.7883 8.47342 14.7712C8.68748 14.7116 8.95547 14.7426 9.14961 14.8466C9.21816 14.8826 9.28555 14.9376 9.3347 15.0206L9.33483 15.0207C9.33496 15.0211 9.33534 15.021 9.33534 15.0206L9.34104 14.9837C9.34362 14.967 9.35539 14.9532 9.37156 14.9482L9.41657 14.9343C9.52263 14.9006 10.063 14.7448 10.2732 14.9661C10.2822 14.9752 10.298 14.9761 10.3068 14.9667C10.3354 14.9352 10.3587 14.918 10.3736 14.9095C10.5104 14.8265 10.7451 14.8213 10.9013 14.955C10.9327 14.9814 10.9836 14.9718 11.0073 14.9382C11.0219 14.9176 11.0385 14.8994 11.0571 14.8838C11.112 14.8364 11.1814 14.8138 11.2584 14.8186L11.5552 14.8025C11.6298 14.7984 11.8619 14.7826 11.9349 14.7672C11.9405 14.7661 11.9462 14.765 11.952 14.7641C11.9829 14.7593 12.0197 14.7514 12.0581 14.7434C12.202 14.712 12.3654 14.6767 12.4995 14.7386C12.6283 14.7983 12.612 14.9451 12.5965 15.0745C12.5904 15.127 12.5838 15.1819 12.5844 15.234C12.5853 15.2583 12.5858 15.2828 12.5862 15.3077C12.5881 15.4193 12.5904 15.5224 12.5683 15.6016V15.6021V15.6025L12.5819 15.6638C12.5825 15.6661 12.5832 15.6691 12.584 15.6727C12.5961 15.7289 12.6564 15.7602 12.7054 15.7303C12.8089 15.6672 12.9177 15.5852 12.9505 15.538C12.953 15.5343 12.9549 15.5306 12.9563 15.5264C12.9609 15.5145 12.9693 15.4888 12.9785 15.435C12.9968 15.3247 13.0174 15.1005 13.0192 14.6454C13.0192 14.6213 13.0192 14.6041 13.0197 14.5961C13.0235 14.4272 13.0169 14.2916 13.0103 14.172C12.9981 13.9252 12.9882 13.7311 13.1106 13.5334C13.2299 13.3411 13.3456 13.2684 13.4569 13.1979C13.5862 13.1168 13.7322 13.0248 13.9781 12.6876C14.0987 12.5215 14.1135 12.4545 14.1253 12.4009C14.1521 12.2756 14.1935 12.2002 14.3796 12.0595C14.5312 11.945 14.9923 11.5956 15.6144 11.7002C15.8184 11.7348 16.1491 11.8436 16.4754 11.9722C16.4754 11.9722 16.4757 11.9723 16.4759 11.9723H16.4763C16.4885 11.9759 16.501 11.9802 16.5125 11.9863C16.5167 11.9885 16.5209 11.9906 16.5253 11.9924C16.8169 12.1088 17.1005 12.2388 17.2822 12.3426C17.3245 12.3668 17.3787 12.3528 17.4085 12.3142C17.468 12.2369 17.5329 12.1922 17.6029 12.1502C17.6291 12.1343 17.6493 12.1221 17.6686 12.1057C17.6752 12.1001 17.6816 12.0947 17.688 12.0895C17.7423 12.0455 17.7422 11.9515 17.6799 11.9194C16.8032 11.4661 15.9773 11.213 15.7044 11.1354ZM9.47309 11.3366C9.2708 12.2218 7.89954 13.1948 7.27626 13.1948H7.26397C7.25414 13.1943 7.24327 13.1934 7.23163 13.1915C7.21986 13.1897 7.20719 13.1868 7.19374 13.1831C7.18714 13.1811 7.18003 13.1788 7.17305 13.177C7.05987 13.1413 6.90324 13.0544 6.78464 12.9377C6.70302 12.8576 6.63874 12.7631 6.61856 12.6613C6.61481 12.6435 6.61107 12.6257 6.60719 12.6079C6.57356 12.4573 6.53165 12.2693 6.66448 11.9615C6.68285 11.9202 6.69914 11.8817 6.71415 11.8465C6.71893 11.8348 6.72411 11.8231 6.72876 11.8118C6.74286 11.7786 6.75541 11.748 6.76679 11.7204C6.78554 11.6735 6.80093 11.6337 6.81361 11.5998C6.81878 11.5866 6.82357 11.574 6.82771 11.5623C6.86573 11.4559 6.87039 11.416 6.87556 11.3748C6.88035 11.3424 6.88501 11.3029 6.8982 11.2466C6.93713 11.0805 6.95731 10.9398 6.97516 10.8145C7.0071 10.5892 7.03478 10.3946 7.15623 10.2159C7.17693 10.1855 7.19982 10.1577 7.22568 10.1334C7.23461 10.125 7.24314 10.1169 7.25233 10.1089C7.26177 10.1009 7.27121 10.0939 7.2804 10.0868C7.30989 10.0661 7.34144 10.0479 7.37559 10.0324C7.38736 10.0272 7.39913 10.022 7.41077 10.0179C7.43483 10.0089 7.46005 10.0013 7.48643 9.99471C7.59805 9.96768 7.72985 9.96342 7.88131 9.98256C8.04699 9.99575 8.20039 10.0271 8.33632 10.0651C8.44988 10.0964 8.55129 10.1331 8.63704 10.1673C8.64597 10.1706 8.6545 10.1739 8.66291 10.1776C8.67933 10.1842 8.69524 10.1908 8.71076 10.1979C8.7343 10.2077 8.75577 10.2172 8.77595 10.226C8.80272 10.2381 8.82717 10.249 8.84877 10.2587L8.86895 10.2681C8.96466 10.3117 9.04692 10.3596 9.11715 10.4098C9.15181 10.4352 9.18428 10.461 9.21325 10.4871C9.22321 10.4956 9.23265 10.5046 9.24132 10.5139C9.25076 10.5229 9.25968 10.5319 9.26809 10.5408C9.53155 10.8182 9.51849 11.1391 9.47309 11.3366ZM10.1085 7.98142L10.0819 8.14193C10.0205 8.50356 9.87921 8.99945 9.35849 9.1271C8.85756 9.24959 8.73883 9.27572 8.38224 9.29175C8.37435 9.29266 8.36581 9.29266 8.35741 9.29266C8.09705 9.29266 7.59598 9.12853 7.50726 8.72033C7.45048 8.45764 7.56637 8.26726 7.75727 7.95154C7.78909 7.89941 7.82349 7.84354 7.85996 7.7812C8.11231 7.35606 8.21177 7.04836 8.2917 6.80158C8.36944 6.56049 8.43424 6.36118 8.60083 6.19601C8.63924 6.1576 8.68283 6.12138 8.73353 6.08672C8.76586 6.0646 8.79962 6.04494 8.83532 6.02658C8.88266 6.00304 8.93232 5.9826 8.98444 5.96605C9.10033 5.92906 9.22553 5.9103 9.35086 5.9103C9.59376 5.9103 9.83641 5.98014 10.0095 6.11905C10.0873 6.1814 10.198 6.30608 10.2623 6.67392C10.2954 6.8634 10.239 7.21159 10.1085 7.98142ZM13.8236 9.0107C13.6443 9.3184 13.5463 9.48783 13.3914 9.61485C13.0842 9.86719 12.7259 9.93108 12.4307 9.93108C12.2187 9.93108 12.0387 9.89836 11.9326 9.87896C11.6276 9.82321 11.0601 9.72 10.871 9.27197C10.834 9.18337 10.8336 9.12711 10.8336 9.05571C10.8336 8.98522 10.8336 8.86674 10.8008 8.58465L10.799 8.5659C10.7838 8.43824 10.767 8.29377 10.8036 8.10843L10.8079 8.08631C10.9148 7.54231 10.9438 7.45914 10.9679 7.41219C11.0232 7.30523 11.1545 7.26306 11.2615 7.31803C11.3651 7.37196 11.4083 7.49756 11.3595 7.6031C11.3486 7.63401 11.3182 7.7499 11.2356 8.17077L11.2313 8.19288C11.2078 8.31162 11.2181 8.40164 11.2318 8.51572L11.2337 8.53499C11.2692 8.84127 11.2692 8.98004 11.2692 9.05519C11.2692 9.06851 11.2692 9.083 11.2697 9.09167C11.2699 9.09503 11.2716 9.09943 11.2726 9.10266C11.308 9.18673 11.388 9.25049 11.4854 9.29951C11.5459 9.32991 11.6091 9.27209 11.5957 9.20574C11.4988 8.72628 11.5041 8.16702 11.6873 7.82142C11.7473 7.7067 11.8582 7.5189 11.9637 7.34364C11.964 7.34313 11.9643 7.34274 11.9646 7.34222C11.9648 7.3417 11.9652 7.34131 11.9655 7.3408C11.9762 7.32308 11.9868 7.30561 11.9974 7.28802C12.0063 7.27289 12.0153 7.25853 12.0235 7.24444C12.07 7.16735 12.1136 7.0966 12.1485 7.04034C12.1531 7.03232 12.1578 7.0243 12.1626 7.0168C12.1658 7.01111 12.1692 7.00594 12.1724 7.00128C12.1799 6.98899 12.1865 6.97774 12.1927 6.96804C12.1954 6.96338 12.1983 6.95912 12.2006 6.95485C12.202 6.95304 12.2031 6.95109 12.204 6.94967C12.2072 6.94398 12.2106 6.93881 12.2134 6.93467C12.219 6.92574 12.2232 6.91915 12.2256 6.91488C12.2258 6.91449 12.226 6.91423 12.2261 6.91384C12.2266 6.91294 12.2276 6.91152 12.2282 6.91061C12.2285 6.90996 12.2287 6.90984 12.2291 6.90919C12.2654 6.85629 12.3014 6.80598 12.3363 6.75864C12.3837 6.69436 12.3288 6.61016 12.2548 6.64042C12.0768 6.71298 11.9552 6.80572 11.9305 6.82525C11.8363 6.90039 11.6992 6.88488 11.6247 6.79059C11.55 6.69643 11.5655 6.55894 11.6598 6.48379C11.772 6.39571 12.3663 5.96216 13.078 6.16574C13.5909 6.31164 13.8596 6.70341 13.9609 6.85073C14.0425 6.97037 14.2927 7.33355 14.2847 7.84056C14.2787 8.22729 14.1174 8.5055 13.8236 9.0107Z" fill="white"/>
<path d="M9.2011 6.35886C9.16463 6.44707 9.12104 6.55636 9.07422 6.67509C8.9648 6.95007 8.84076 7.26152 8.78114 7.37443C8.67831 7.5696 8.59825 7.69273 8.53436 7.79194C8.46115 7.90589 8.40282 7.99604 8.35884 8.12176C8.28163 8.34163 8.26779 8.58738 8.31797 8.85459C8.18165 8.83959 7.95854 8.74569 7.93332 8.62734C7.91443 8.53926 7.96914 8.44291 8.13043 8.17763C8.16276 8.12473 8.19743 8.06718 8.23532 8.00315C8.5125 7.53637 8.62464 7.18909 8.70715 6.93519C8.79614 6.65892 8.83818 6.54304 8.9798 6.44629C9.04318 6.40218 9.12027 6.37412 9.2011 6.35886Z" fill="white"/>
<path d="M8.93038 16.1478C8.77931 16.4564 8.59126 16.7412 8.47407 16.8823C8.37707 16.62 8.20841 16.019 8.2529 15.5354C8.2542 15.5214 8.25575 15.5076 8.25782 15.4941C8.27567 15.3447 8.31537 15.2077 8.38599 15.0979C8.43256 15.0258 8.5615 14.9817 8.70792 14.9817C8.81605 14.9817 8.93362 15.0053 9.03489 15.0597H9.03567C9.08986 15.0886 9.16371 15.1473 9.17147 15.3179C9.1826 15.5484 9.07278 15.8582 8.93038 16.1478Z" fill="white"/>
<path d="M17.2075 12.6896C17.2191 12.6991 17.2265 12.7133 17.2198 12.7268C17.1746 12.8174 17.1206 12.8811 17.0567 12.9559C16.9796 13.0478 16.8914 13.1519 16.8094 13.3142C16.6926 13.5443 16.6552 13.7542 16.6355 14.2916C16.6124 14.9229 16.6368 15.2776 16.6552 15.5361C16.6727 15.7859 16.6834 15.9364 16.6389 16.18C16.5491 16.6714 16.339 16.9966 16.0728 17.4083C15.7397 17.9232 15.3953 18.4555 14.8249 18.6252C14.7719 18.6415 14.7701 18.6415 14.6213 18.642C14.4919 18.642 14.2765 18.6425 13.8688 18.6575C13.1237 18.6845 12.7499 18.698 12.4301 18.7594C12.0946 18.8243 11.9196 18.8957 11.7499 18.9643C11.5967 19.0262 11.452 19.0851 11.1746 19.1421C11.0091 19.1755 10.762 19.212 9.91971 19.2133C9.04434 19.2148 8.51586 19.2152 7.81807 19.1357C6.8607 19.0264 6.38008 18.9717 6.06087 18.8012C5.30798 18.3996 4.99006 17.6774 4.46417 16.4808C4.46326 16.4788 4.46235 16.4767 4.46145 16.4745C4.45498 16.4596 4.47309 16.4453 4.48706 16.4535C4.51202 16.4691 4.53802 16.4819 4.56544 16.4911C4.58846 16.4992 4.61239 16.5054 4.63658 16.5094C4.68469 16.5176 4.73488 16.5181 4.78584 16.5094C4.79476 16.5079 4.80291 16.5058 4.8108 16.5026C4.81235 16.5019 4.81377 16.5011 4.81532 16.5005C4.82425 16.4961 4.83524 16.4997 4.83899 16.5089C4.87249 16.6011 4.92565 16.6833 5.0149 16.7306C5.10427 16.7772 5.20593 16.7808 5.30539 16.78C5.40783 16.7784 5.51104 16.7726 5.61309 16.7603C5.66716 16.7547 5.72251 16.7812 5.7432 16.8315C5.83672 17.0581 5.95248 17.2221 6.12644 17.2463C6.13588 17.2476 6.14817 17.2491 6.16369 17.2491C6.20288 17.2491 6.26341 17.2377 6.34877 17.179C6.41487 17.1337 6.51717 17.1604 6.56464 17.2249C6.6081 17.2838 6.65983 17.3261 6.70433 17.3618C6.88346 17.5457 7.31882 17.6339 7.68446 17.6339C7.88391 17.6339 8.06278 17.6076 8.16807 17.5564C8.31862 17.4834 8.31862 17.3712 8.31124 17.3258C8.29844 17.2445 8.2868 17.1638 8.27697 17.0838C8.2758 17.0742 8.29029 17.0705 8.29417 17.0794C8.31603 17.1271 8.3428 17.1866 8.41407 17.1982C8.42183 17.1989 8.43049 17.2006 8.44032 17.2006C8.54224 17.2006 8.70081 17.2339 8.7281 17.332C8.74207 17.3821 8.76173 17.4289 8.78851 17.4712C8.84969 17.5681 8.97424 17.6834 9.22115 17.6876H9.24029C9.5238 17.6876 9.74265 17.5948 9.89022 17.4116C9.89979 17.3998 9.90897 17.3876 9.91777 17.3753C9.9708 17.3006 10.1283 17.2974 10.1957 17.3594C10.2716 17.4297 10.3672 17.4659 10.4737 17.4659C10.4907 17.4659 10.5081 17.4651 10.5259 17.463C10.6528 17.4496 10.7626 17.3823 10.8446 17.2676C10.8983 17.1927 10.9375 17.1006 10.9661 17.001C10.9745 16.9717 11.0148 16.963 11.0373 16.9836C11.0915 17.0338 11.1784 17.0868 11.3038 17.0868C11.3343 17.0868 11.3674 17.0836 11.4026 17.0762C11.6489 17.0267 11.7715 16.8228 11.8295 16.5927C11.8315 16.585 11.8426 16.5829 11.8478 16.589C11.9101 16.6649 12.0252 16.7526 12.2256 16.7526C12.2358 16.7526 12.2464 16.7526 12.2569 16.7521C12.3629 16.7471 12.4523 16.7006 12.5168 16.6173C12.5954 16.515 12.6263 16.3633 12.6334 16.2106C12.6355 16.1662 12.6642 16.1271 12.7053 16.1099C12.9166 16.0216 13.1726 15.8313 13.2476 15.7017C13.2502 15.6972 13.2528 15.6924 13.2554 15.6875C13.2726 15.6541 13.3021 15.6277 13.3389 15.6207C13.5027 15.5897 13.5741 15.5588 13.639 15.5306C13.6919 15.5073 13.7345 15.4889 13.8534 15.4704C14.8002 15.326 14.985 15.2941 15.1899 15.1576C15.4963 14.9532 15.5118 14.6719 15.527 14.3998C15.5399 14.1697 15.5547 13.9085 15.7334 13.6021C15.7983 13.4902 15.8732 13.3507 15.9529 13.203C16.0923 12.9444 16.2871 12.5824 16.4265 12.3927C16.4528 12.3568 16.5003 12.3457 16.5411 12.3631C16.8684 12.5021 17.1471 12.6413 17.2075 12.6896Z" fill="white"/>
<path d="M8.01312 15.5068C7.97561 15.8341 7.95272 16.2714 8.00575 16.8411C8.02075 17.0018 8.0417 17.1687 8.0677 17.3377C8.02282 17.3622 7.88882 17.3964 7.65058 17.3927C7.30822 17.3858 6.97491 17.2997 6.8748 17.1914L6.85928 17.1775C6.77598 17.1106 6.72141 17.0665 6.71365 16.947C6.71106 16.9066 6.72839 16.8667 6.76538 16.8101C6.78582 16.7783 6.81272 16.7416 6.84609 16.6963C6.90364 16.6191 6.97504 16.5229 7.04812 16.3987C7.26243 16.0367 7.34366 15.9249 7.44687 15.7837C7.45502 15.7723 7.46368 15.7608 7.47261 15.749C7.5334 15.6658 7.6048 15.5662 7.71215 15.4025C7.79208 15.2811 7.85856 15.1859 7.9134 15.1111C8.00484 14.9868 8.06473 14.9193 8.10314 14.8826C8.09745 14.939 8.08477 15.0181 8.07249 15.0912C8.05438 15.2036 8.03149 15.3411 8.01312 15.5068Z" fill="white"/>
<path d="M7.85622 10.4177C7.85415 10.4205 7.8517 10.4234 7.84963 10.4263C7.80514 10.488 7.75418 10.5577 7.69339 10.6935C7.53016 11.0563 7.52705 11.2617 7.52447 11.4269C7.52292 11.5134 7.52201 11.5824 7.49834 11.6628C7.48205 11.7158 7.45553 11.7766 7.42488 11.8467C7.32865 12.0671 7.20293 12.3561 7.25932 12.7449C7.18133 12.7074 7.06208 12.6216 7.04552 12.5759C7.04138 12.5547 7.03686 12.5339 7.03207 12.5131C7.00504 12.3918 6.98719 12.3127 7.06428 12.1352C7.26708 11.6675 7.29205 11.5566 7.30796 11.4292C7.31119 11.4014 7.31455 11.3798 7.3227 11.3446C7.36551 11.1602 7.38789 11.0023 7.40625 10.8754C7.43354 10.6828 7.45191 10.5554 7.51684 10.4596C7.54051 10.4241 7.6075 10.4058 7.70334 10.4058C7.74124 10.4058 7.78405 10.4086 7.83075 10.4152L7.84161 10.416C7.84639 10.4165 7.85144 10.4169 7.85622 10.4177Z" fill="white"/>
<path d="M7.58875 15.0312C7.57776 14.9191 7.5581 14.8067 7.51735 14.701C7.51451 14.6957 7.50235 14.6687 7.49977 14.6635C7.49239 14.65 7.48398 14.6374 7.47609 14.624C7.47558 14.6235 7.47532 14.6235 7.47532 14.6231C7.4748 14.6224 7.47454 14.6224 7.47454 14.622C7.47002 14.6171 7.46588 14.6123 7.46148 14.6076C7.45488 14.601 7.44777 14.5947 7.44066 14.5889C7.43936 14.5873 7.4382 14.586 7.43703 14.5855C7.4338 14.5828 7.42888 14.5789 7.42358 14.5758C7.41492 14.5713 7.40677 14.5664 7.39836 14.5621C7.39577 14.5604 7.38969 14.558 7.384 14.5559C7.384 14.5559 7.38362 14.5559 7.38362 14.5555C7.38232 14.555 7.38103 14.5547 7.37999 14.5542C7.3787 14.5534 7.37792 14.5529 7.37715 14.5527C7.37585 14.5521 7.37508 14.5519 7.37431 14.5519C7.37353 14.5519 7.37353 14.5514 7.37353 14.5514C7.37094 14.5501 7.36939 14.5498 7.36823 14.5493C7.30291 14.5254 7.23669 14.4991 7.16736 14.4889C7.16697 14.4889 7.16581 14.4885 7.1649 14.4885H7.16335C7.15559 14.4885 7.13968 14.4869 7.13891 14.4869C7.12921 14.4864 7.11976 14.4864 7.11032 14.4869C7.10579 14.4869 7.1014 14.4869 7.09726 14.4873H7.09364C7.09208 14.4873 7.09014 14.4879 7.08808 14.4879C7.0873 14.4886 7.08601 14.4886 7.08549 14.4886C7.0851 14.4886 7.08471 14.4886 7.08471 14.4886C7.06919 14.4932 7.0529 14.4973 7.03737 14.5021C7.03078 14.5054 7.02354 14.5087 7.01694 14.5128C7.01138 14.516 7.00556 14.5202 6.99986 14.523C6.99948 14.5234 6.9987 14.5242 6.9978 14.5242L6.99663 14.5255C6.98926 14.5329 6.9815 14.5397 6.97413 14.5471C6.97167 14.5497 6.96482 14.5581 6.9599 14.5643C6.95861 14.5651 6.95783 14.5658 6.95783 14.5666C6.95744 14.567 6.95744 14.567 6.95705 14.5674C6.95667 14.5678 6.95666 14.5682 6.95576 14.5686C6.95537 14.5691 6.95537 14.5695 6.95499 14.5695C6.95305 14.573 6.95097 14.5759 6.9502 14.5776C6.92394 14.6184 6.89743 14.6588 6.87014 14.6991C6.80728 14.7954 6.74287 14.8913 6.67755 14.9865C6.61792 15.0726 6.55843 15.1587 6.49919 15.2447C6.46608 15.293 6.43349 15.3406 6.4009 15.3888C6.3952 15.397 6.3899 15.4051 6.3846 15.4133C6.42327 15.4206 6.46207 15.4283 6.50126 15.4357C6.58896 15.4517 6.67626 15.4671 6.76524 15.4792C6.94839 15.5042 7.13464 15.5157 7.32024 15.5091C7.32917 15.5086 7.33809 15.5091 7.34637 15.5107C7.39099 15.447 7.4435 15.3711 7.5105 15.2695C7.54762 15.2127 7.58306 15.1602 7.61643 15.1115C7.60142 15.0882 7.59198 15.0604 7.58875 15.0312Z" fill="white"/>
<path d="M6.93636 15.7881C6.92058 15.9293 6.76252 16.2948 6.516 16.6429C6.30958 16.9339 6.18425 17.0045 6.15928 17.007C6.05969 16.9932 5.9614 16.7466 5.8834 16.5022C5.8521 16.4031 5.82378 16.3043 5.80011 16.2215C5.74669 16.0355 5.73699 15.786 5.7463 15.6294C5.95454 15.7448 6.32006 15.7758 6.83353 15.7779H6.83508C6.86897 15.7815 6.90247 15.7852 6.93636 15.7881Z" fill="white"/>
<path d="M6.57124 14.6252C6.57124 14.6257 6.57124 14.6257 6.57124 14.626C6.56878 14.6294 6.56671 14.633 6.56438 14.6362C6.47617 14.7659 6.38732 14.895 6.29834 15.0242C6.25229 15.0908 6.20663 15.1573 6.16124 15.2243C6.1364 15.2607 6.1029 15.3006 6.07393 15.3438C6.00085 15.3266 5.92791 15.3099 5.85561 15.2895C5.7965 15.2724 5.73816 15.2541 5.68087 15.2312C5.66935 15.227 5.65836 15.2225 5.64776 15.2173C5.63832 15.1982 5.62486 15.181 5.60857 15.1679C5.60895 15.1675 5.60895 15.1664 5.60934 15.1659C5.63016 15.1234 5.65138 15.0806 5.6722 15.0382C5.71178 14.9603 5.75149 14.8829 5.79546 14.8077C5.87397 14.6722 5.96852 14.5343 6.10122 14.4465C6.10782 14.4415 6.11506 14.437 6.12204 14.4326C6.17352 14.4003 6.225 14.3775 6.28812 14.3698C6.29549 14.369 6.33998 14.3692 6.36081 14.3711C6.36443 14.3711 6.3674 14.3714 6.36947 14.3714H6.36986C6.37141 14.372 6.37438 14.3727 6.37878 14.3743C6.3943 14.3792 6.40996 14.3824 6.42548 14.3877C6.43078 14.3903 6.43556 14.3927 6.441 14.3955C6.45445 14.4037 6.46829 14.411 6.48096 14.4212C6.46053 14.4057 6.50916 14.4559 6.50916 14.4523C6.54835 14.5065 6.56025 14.5519 6.57124 14.6252Z" fill="white"/>
<path d="M5.8728 14.2574C5.70957 14.3916 5.59084 14.5704 5.49176 14.7564C5.43615 14.8596 5.38597 14.9649 5.33371 15.0697C5.32841 15.0805 5.32311 15.0907 5.31703 15.1012C5.26762 15.0904 5.21821 15.0762 5.16997 15.0608C5.11862 15.0445 5.06753 15.0258 5.01864 15.003C4.99626 14.9923 4.97376 14.9813 4.95139 14.9695C5.00028 14.8769 5.05861 14.7879 5.11422 14.7015C5.1926 14.5794 5.27745 14.4595 5.36967 14.3469C5.40433 14.3041 5.44106 14.2571 5.4897 14.2289C5.53936 14.1995 5.59951 14.2065 5.65654 14.2098C5.71695 14.2135 5.78188 14.2151 5.83891 14.238C5.85068 14.243 5.86349 14.2509 5.8728 14.2574Z" fill="white"/>
<path d="M5.61361 16.4479C5.60546 16.4547 5.59861 16.4621 5.59253 16.4708C5.58684 16.4723 5.58102 16.4736 5.5774 16.4745C5.53821 16.4785 5.49824 16.4814 5.45866 16.484C5.38274 16.4887 5.30565 16.4921 5.22896 16.4893C5.18614 16.4877 5.14734 16.4811 5.12975 16.4538C5.10156 16.411 5.09302 16.3362 5.08293 16.2795C5.03275 16.0007 5.02615 15.7104 5.06172 15.4283C5.20736 15.4805 5.35726 15.521 5.51091 15.5462C5.4778 15.8005 5.5342 16.1738 5.56718 16.2881C5.58257 16.3413 5.59809 16.3951 5.61361 16.4479Z" fill="white"/>
<path d="M5.14501 14.1645C5.01606 14.3228 4.89862 14.4913 4.79321 14.666C4.75065 14.737 4.70254 14.8104 4.6671 14.8863C4.61601 14.8721 4.56997 14.8517 4.52108 14.8214C4.48357 14.7981 4.44709 14.7724 4.41166 14.7455C4.40273 14.7381 4.37829 14.719 4.36302 14.7067C4.35953 14.704 4.35617 14.7011 4.35242 14.6991C4.36419 14.6657 4.38579 14.6284 4.39769 14.6035C4.42472 14.5444 4.45486 14.4863 4.48641 14.4298C4.5463 14.3237 4.6133 14.22 4.68922 14.1245C4.71741 14.0894 4.74419 14.0441 4.78803 14.031C4.828 14.0196 4.88064 14.0249 4.91285 14.0305C5.0083 14.049 5.08306 14.0923 5.14501 14.1645Z" fill="white"/>
<path d="M4.15143 14.8517C4.15324 14.845 4.16203 14.8441 4.16604 14.8497C4.19993 14.898 4.24714 14.9399 4.29784 14.9793C4.32047 14.9965 4.34285 15.0136 4.36574 15.0298C4.36859 15.0319 4.36988 15.0353 4.3691 15.0388C4.31569 15.2601 4.27921 15.4951 4.27986 15.7267C4.27986 15.7369 4.26447 15.7389 4.26214 15.729C4.19682 15.4594 4.1081 15.0101 4.15143 14.8517Z" fill="white"/>
<path d="M4.78273 15.333C4.7566 15.5255 4.74405 15.7186 4.75246 15.9128C4.7566 16.0192 4.76798 16.125 4.78234 16.2302C4.78234 16.231 4.78234 16.2319 4.78273 16.2322V16.2328C4.75983 16.2275 4.73591 16.2267 4.71146 16.2302C4.71625 16.2286 4.7037 16.2294 4.6984 16.2294H4.69684C4.69322 16.229 4.68792 16.2286 4.68611 16.2282C4.6592 16.2216 4.65688 16.2188 4.63554 16.2053C4.60773 16.1874 4.57837 16.1546 4.55884 16.1213C4.50698 16.0315 4.49559 15.9225 4.49145 15.8208C4.48382 15.6214 4.5009 15.4222 4.53815 15.2268C4.56996 15.2397 4.59764 15.2516 4.64381 15.2715C4.68947 15.2914 4.73681 15.3111 4.78299 15.3324V15.333H4.78273Z" fill="white"/>
<g opacity="0.8" filter="url(#filter0_i_6_5)">
<path d="M9.87534 25.411C8.99648 25.411 8.16289 25.3555 7.46342 25.301L7.27058 25.286L7.07799 25.2592C6.99379 25.2473 6.87932 25.2351 6.76887 25.223C6.09591 25.1498 4.84442 25.0135 3.46295 24.3647L3.24837 24.2636L3.04828 24.1516C0.393198 22.6633 -0.600517 20.4235 -1.1356 19.2193C-1.16961 19.1429 -1.211 19.0498 -1.2498 18.964C-1.51999 18.4112 -1.69072 17.9129 -1.83558 17.4567L-1.86779 17.3548L-1.89456 17.2558C-2.27999 15.8861 -2.37738 14.7033 -2.20084 13.5337C-2.0239 12.3593 -1.5888 11.2908 -0.83307 10.1724L-0.441171 9.53245C-0.361627 9.40324 -0.305493 9.26097 -0.275227 9.11223C0.0235471 7.63142 0.701544 6.58248 1.03472 6.08154C1.12642 5.47507 1.27762 4.87921 1.48612 4.30248L1.51716 4.21504L1.5504 4.12981C1.55583 4.11481 1.56282 4.0936 1.57562 4.05492C1.72527 3.60418 2.07617 2.54928 2.97456 1.44162L3.312 1.0329L3.65579 0.722357C4.53892 -0.0801953 5.5911 -0.674122 6.73446 -1.01558C7.37288 -1.20597 8.03096 -1.32237 8.6959 -1.36247L8.76018 -1.36725L8.85705 -1.37178C8.97204 -1.37721 9.08663 -1.3798 9.19838 -1.3798C9.6133 -1.38057 10.0276 -1.34565 10.4364 -1.27555C10.692 -1.23248 10.9544 -1.26249 11.1936 -1.36208C11.9025 -1.65788 12.6477 -1.85797 13.4094 -1.95704C13.4731 -1.96609 13.5285 -1.97308 13.5723 -1.97877C13.6924 -1.99377 13.8833 -2.01628 14.1141 -2.03827C14.5163 -2.07668 15.1331 -2.12247 15.8018 -2.12247C17.1076 -2.12247 18.2317 -1.95329 19.238 -1.60537L19.3236 -1.57562L19.4073 -1.54419C21.6279 -0.705033 22.7583 0.467302 23.5714 1.5015L23.6099 1.55078L23.7218 1.65024C24.4562 2.2249 25.0808 2.92734 25.5654 3.72407L25.717 3.97344L25.8449 4.23496C26.9311 6.4521 26.5859 8.49929 26.4558 9.26847L26.4488 9.3096C26.3553 9.87701 26.2064 10.434 26.0044 10.9724C25.93 11.4916 25.8078 12.0027 25.6391 12.4992C25.3508 13.382 24.9254 14.2138 24.3786 14.9643C24.0638 15.4096 23.7082 15.8248 23.3166 16.2044C23.1781 16.3383 23.0883 16.5146 23.0615 16.7052C23.0446 16.8227 23.0253 16.9388 23.0033 17.0538C22.6849 18.7617 21.9379 19.9504 21.6331 20.4238L20.7113 21.7477C19.6012 23.1307 18.284 24.0429 16.6901 24.5331L16.3039 24.6542L15.8868 24.7268C15.4097 24.811 14.9261 24.8529 14.4415 24.8518C14.3747 24.8518 14.3074 24.8518 14.2328 24.8499H14.2113L14.1291 24.8551L14.0409 24.8583H14.0384C13.8537 24.8645 13.6706 24.8946 13.4936 24.9481C12.4641 25.263 11.2995 25.411 9.87534 25.411Z" stroke="url(#paint1_linear_6_5)" stroke-width="0.136505" stroke-miterlimit="10"/>
<path d="M9.87535 24.5007C9.03322 24.5007 8.2255 24.447 7.54659 24.3935L7.38569 24.381L7.22479 24.3588C7.12443 24.3448 7.00194 24.332 6.8836 24.3186C6.23004 24.2476 5.13738 24.1287 3.91758 23.5566L3.73844 23.4724L3.57185 23.3788C1.22887 22.0647 0.362034 20.1135 -0.1561 18.9474C-0.193092 18.8642 -0.238488 18.762 -0.280782 18.6693C-0.52213 18.1742 -0.680442 17.7168 -0.81405 17.2961L-0.840823 17.2112L-0.864105 17.1287C-1.20686 15.9105 -1.29545 14.871 -1.14257 13.8567C-0.989694 12.8423 -0.60452 11.9049 0.0672697 10.9169L0.569367 10.097C0.658223 9.95179 0.719141 9.79115 0.749018 9.62365C0.999032 8.23079 1.65698 7.24329 1.95602 6.79383L1.99378 6.73692L2.00775 6.71441C2.01396 6.70071 2.01978 6.68764 2.02547 6.67342C2.04371 6.61418 2.06169 6.55675 2.07915 6.50204C2.15779 5.93062 2.29657 5.36929 2.49342 4.82709L2.52032 4.75414L2.54904 4.68094C2.55809 4.65766 2.56663 4.63243 2.59185 4.55677C2.73425 4.12762 3.0307 3.23673 3.80609 2.28078L4.0874 1.94023L4.37298 1.68194C5.1388 0.986094 6.05104 0.471193 7.04243 0.175135C7.60531 0.00802833 8.1854 -0.0938911 8.77144 -0.128683L8.82511 -0.132954L8.90556 -0.136704C9.00347 -0.14136 9.10112 -0.14343 9.19632 -0.14343C9.6168 -0.144206 10.0361 -0.265267 10.4481 -0.180679C10.7659 -0.114975 11.0963 -0.150153 11.3932 -0.281303C11.9478 -0.525884 12.6944 -0.623537 13.5492 -0.729984C13.6102 -0.738908 13.6632 -0.745505 13.7044 -0.750678C13.8168 -0.764906 13.9966 -0.786117 14.214 -0.806682C14.5922 -0.842897 15.1743 -0.887131 15.8 -0.887131C16.9846 -0.887131 17.9939 -0.737228 18.8857 -0.428883L18.9569 -0.404177L19.0266 -0.377274C20.9951 0.366429 21.9678 1.36196 22.7258 2.32722C22.7678 2.38089 22.811 2.43586 22.827 2.45488L22.845 2.47091L22.9888 2.59896L23.0081 2.61875C23.663 3.12033 24.2186 3.73948 24.6468 4.44438L24.7729 4.65222L24.8802 4.87003C25.8145 6.77715 25.5217 8.51224 25.3967 9.25322L25.39 9.29267C25.3013 9.83098 25.1563 10.3586 24.9571 10.8665C24.8944 11.3608 24.7819 11.8475 24.6214 12.3193C24.3664 13.1003 23.9902 13.8365 23.5065 14.5005C23.179 14.9662 22.8003 15.3934 22.3776 15.7745C22.1815 15.9507 22.0577 16.1933 22.0303 16.4555C22.0099 16.6486 21.9823 16.8363 21.9474 17.0206C21.6666 18.5282 21.0103 19.5709 20.7099 20.0378L19.9632 21.1232C18.9709 22.3983 17.7951 23.2321 16.3707 23.6712L16.0489 23.772L15.7002 23.8324C15.2841 23.9058 14.8622 23.9423 14.4396 23.9415C14.3782 23.9415 14.3154 23.9415 14.2479 23.9399H14.2288H14.1888C14.1888 23.9399 14.1755 23.9399 14.1481 23.9418L14.0744 23.9463L14.0001 23.949L13.8518 23.9546C13.6557 23.9616 13.4615 23.9954 13.2745 24.055C12.3262 24.3578 11.2303 24.5007 9.87535 24.5007Z" stroke="url(#paint2_linear_6_5)" stroke-width="0.136505" stroke-miterlimit="10"/>
<path d="M9.87547 23.4284C9.07085 23.4284 8.28822 23.3762 7.62949 23.325L7.50106 23.315L7.37288 23.2973C7.25673 23.2813 7.1261 23.267 6.99973 23.2531C6.37515 23.1852 5.43188 23.0825 4.37414 22.5863L4.23058 22.5191L4.09645 22.4442C2.06465 21.3051 1.31849 19.6248 0.824417 18.5129C0.782382 18.4177 0.734654 18.3104 0.69042 18.2109C0.475846 17.7745 0.332538 17.3583 0.210571 16.9728L0.189101 16.9053L0.170346 16.839C-0.129851 15.7727 -0.209136 14.8761 -0.0799259 14.0181C0.0512245 13.148 0.39294 12.3371 0.994758 11.4653L1.06641 11.3618L1.14388 11.2624C1.19265 11.2002 1.2396 11.1387 1.28577 11.0786L1.58778 10.5248C1.68685 10.3438 1.75372 10.147 1.78541 9.94311C1.97748 8.70055 2.57606 7.8028 2.85233 7.38879L2.85362 7.38658C2.86953 7.36291 2.88984 7.33291 2.90032 7.31635L2.9593 7.22219C2.98245 7.17175 3.01297 7.10475 3.03975 7.03439C3.06665 6.95045 3.0986 6.84672 3.13339 6.73937C3.19883 6.21011 3.32429 5.68991 3.50731 5.18897L3.52813 5.13051L3.55103 5.07141C3.5703 5.02239 3.58452 4.9797 3.61246 4.89576C3.74464 4.49856 3.98974 3.76133 4.64175 2.95696L4.86731 2.68418L5.09508 2.47853C5.7432 1.88952 6.51536 1.45352 7.35464 1.20299C7.84174 1.05839 8.34396 0.970695 8.85123 0.941723L8.89405 0.93849L8.95923 0.935514C9.03968 0.931763 9.12013 0.929953 9.20058 0.929953C9.63684 0.929306 10.0713 0.984533 10.4933 1.09434C10.8588 1.18682 11.2453 1.14595 11.5833 0.979233C12.1243 0.716673 12.848 0.438074 13.6956 0.333955C13.7539 0.325678 13.803 0.319209 13.843 0.314165C13.9484 0.300972 14.1163 0.281186 14.3201 0.260491C14.6749 0.226475 15.2204 0.185989 15.804 0.185989C16.8674 0.185989 17.7618 0.316494 18.5397 0.585261L18.5968 0.605179L18.6526 0.626004C20.4605 1.30943 21.2699 2.20447 21.8866 2.98943C22.0225 3.16235 22.0431 3.18926 22.1365 3.27216L22.2516 3.3746L22.2963 3.42039C22.5938 3.65087 23.2021 4.12529 23.7345 5.00286L23.8355 5.16906L23.9209 5.34315C24.7035 6.94023 24.4599 8.38263 24.343 9.07602L24.3365 9.1143C24.2529 9.62261 24.1112 10.1198 23.9144 10.5959L23.9091 10.6396C23.8571 11.095 23.7565 11.5436 23.6089 11.9776C23.3876 12.6573 23.0604 13.2978 22.6394 13.8754C22.2872 14.3802 21.8638 14.8314 21.3826 15.2151C21.2681 15.3059 21.1743 15.4201 21.1076 15.5501C21.0408 15.6802 21.0028 15.823 20.9958 15.969C20.9828 16.2555 20.9498 16.541 20.8971 16.8229C20.6541 18.1302 20.0835 19.0365 19.7922 19.4889L19.2134 20.3442C18.3409 21.5089 17.3067 22.2628 16.0569 22.6461L15.7997 22.7265L15.5215 22.7749C15.166 22.8378 14.8054 22.8689 14.4443 22.8681C14.3881 22.8681 14.3311 22.8681 14.2694 22.8666H14.2552H14.1935C14.183 22.8666 14.1511 22.8666 14.0861 22.8706L14.0271 22.8744L13.9701 22.8766L13.6719 22.8875C13.463 22.8947 13.2562 22.932 13.0579 22.9983C12.1892 23.2908 11.1643 23.4284 9.87547 23.4284Z" stroke="url(#paint3_linear_6_5)" stroke-width="0.127974" stroke-miterlimit="10"/>
<path d="M9.87522 22.3554C9.10629 22.3554 8.3503 22.3047 7.71253 22.2552L7.61617 22.2477L7.51994 22.2345C7.38827 22.2163 7.24962 22.201 7.11524 22.1865C6.52817 22.1224 5.72536 22.0352 4.82929 21.615L4.72207 21.5643L4.62196 21.5083C2.90123 20.5427 2.26824 19.1183 1.80585 18.0774C1.75786 17.9702 1.70794 17.8573 1.65866 17.7491C1.46206 17.3539 1.33686 16.9743 1.23274 16.6495L1.21671 16.5988L1.20274 16.5493C0.699608 14.7611 0.888702 13.5068 1.87724 12.0757L1.93092 11.9978L1.98912 11.9233C2.05483 11.8394 2.11627 11.7586 2.1768 11.6819C2.26798 11.5623 2.36033 11.4405 2.46082 11.3153C2.52329 11.2373 2.57361 11.1502 2.61021 11.0572L2.72364 10.7676C2.77176 10.6444 2.80189 10.515 2.81327 10.3832C2.9117 9.23613 3.46954 8.39995 3.74581 7.98555L3.74736 7.98335C3.76754 7.95282 3.79807 7.9073 3.80828 7.89087L3.87295 7.78766L3.89274 7.76075C3.92715 7.6913 3.9944 7.54463 4.05364 7.39098C4.08559 7.28582 4.13603 7.1244 4.18531 6.9776C4.18531 6.97204 4.18531 6.96584 4.18751 6.95937C4.24041 6.47874 4.35112 6.00626 4.51745 5.55215L4.53323 5.50818L4.55044 5.46394C4.58044 5.3875 4.60165 5.32361 4.63089 5.2354C4.74884 4.88088 4.94621 4.28734 5.47521 3.63508L5.64439 3.43021L5.81421 3.27681C7.06337 2.14328 8.46128 2.0455 8.92845 2.01407L8.96066 2.01161L9.01006 2.00928C9.07357 2.00631 9.13721 2.00502 9.19942 2.00502C9.75403 2.00696 10.3028 2.11909 10.8137 2.33509C10.9042 2.37272 11.0019 2.3898 11.0998 2.38514C11.1977 2.38049 11.2933 2.35423 11.3798 2.30831H11.3825C11.8575 2.03282 12.7275 1.53344 13.8369 1.39983C13.8904 1.39181 13.9398 1.38574 13.9761 1.38108C14.0737 1.36879 14.2294 1.35056 14.421 1.33206C14.7525 1.30037 15.2616 1.2626 15.8027 1.2626C16.745 1.2626 17.5249 1.37409 18.1874 1.60315L18.2303 1.6179L18.2721 1.63381C19.8214 2.2192 20.4896 2.95385 21.041 3.65603C21.1893 3.84371 21.2556 3.93088 21.4216 4.07729L21.5079 4.15425L21.5771 4.22539L21.6308 4.26781C21.8933 4.471 22.3817 4.84945 22.8151 5.56237L22.8911 5.68705L22.9551 5.81769C23.5853 7.10501 23.3882 8.27255 23.2823 8.90011L23.2762 8.93736C23.2015 9.39367 23.0716 9.83911 22.8894 10.2639L22.8741 10.3003C22.8726 10.3082 22.8704 10.3197 22.8671 10.3366C22.8588 10.3798 22.8541 10.4142 22.8484 10.4579L22.8419 10.5072C22.799 10.8919 22.7144 11.2709 22.5896 11.6373C22.4019 12.2155 22.1238 12.7603 21.7659 13.2514C21.4119 13.754 21.015 14.1633 20.5695 14.4873C20.374 14.6301 20.2142 14.8165 20.103 15.0316C19.9918 15.2467 19.932 15.4848 19.9285 15.7269C19.9248 16.0289 19.8952 16.33 19.8402 16.627C19.6348 17.7344 19.1622 18.4843 18.8681 18.9413L18.4475 19.5718C17.6943 20.624 16.8059 21.2959 15.7365 21.6232L15.68 21.641C15.5892 21.6695 15.4966 21.6919 15.4029 21.7081L15.335 21.7199C15.04 21.7721 14.741 21.7981 14.4414 21.7973C14.3907 21.7973 14.3392 21.7973 14.2834 21.796H14.2743C14.2488 21.796 14.2206 21.796 14.1906 21.796C14.1697 21.796 14.1145 21.796 14.0146 21.8023L13.9704 21.8048L13.9272 21.8065C13.7837 21.8118 13.6054 21.818 13.4463 21.825C13.2283 21.8341 13.013 21.8762 12.8077 21.9502C12.038 22.2252 11.0961 22.3554 9.87522 22.3554Z" stroke="url(#paint4_linear_6_5)" stroke-width="0.119442" stroke-miterlimit="10"/>
<path d="M9.87522 21.2827C9.14277 21.2827 8.41303 21.2337 7.7957 21.1857L7.73128 21.1808L7.66713 21.1717C7.51943 21.1513 7.37211 21.1353 7.23022 21.12C6.69062 21.0613 6.01909 20.9881 5.2847 20.6436L5.21291 20.6099L5.1463 20.5726C3.73676 19.7822 3.20996 18.5957 2.78624 17.6422C2.73412 17.5247 2.67889 17.4036 2.62521 17.2855C2.45927 16.9542 2.34688 16.615 2.25466 16.3246L2.24392 16.291L2.23448 16.258C1.8193 14.7829 1.9564 13.8466 2.75908 12.6845L2.79478 12.6327L2.83371 12.5832C2.90368 12.4936 2.96771 12.4099 3.02888 12.3292C3.23841 12.0545 3.4398 11.7901 3.74103 11.4686C3.80699 11.3979 3.84657 11.3066 3.85278 11.2103L3.87567 10.8631L3.86675 10.7494L3.87076 10.6315C3.90219 9.67966 4.38035 8.9635 4.63619 8.57885C4.66581 8.53435 4.69659 8.48857 4.71483 8.45934L4.75802 8.39066L4.79799 8.33698C4.84572 8.25899 4.97118 7.99294 5.06611 7.73762C5.09884 7.63027 5.16221 7.42566 5.21796 7.26334C5.23439 7.2116 5.23593 7.19905 5.24939 7.08795C5.29297 6.68635 5.38545 6.29148 5.52475 5.91225L5.53523 5.88263L5.54674 5.85289C5.58645 5.75148 5.61413 5.6687 5.64607 5.57261C5.74709 5.26853 5.89945 4.81015 6.30558 4.30948L6.41875 4.17263L6.53076 4.07123C7.406 3.27657 8.35936 3.12615 9.00282 3.08295L9.02455 3.08101H9.05779C9.10448 3.07894 9.15092 3.0779 9.19644 3.0779C9.74601 3.0779 10.4033 3.3415 10.7485 3.50084C10.831 3.53861 10.9203 3.55983 11.0111 3.56319C11.1019 3.56642 11.1924 3.55167 11.2774 3.51986C11.4922 3.44199 11.7015 3.34991 11.9039 3.24411C12.343 2.98931 13.0715 2.56857 13.9761 2.46315C14.026 2.45565 14.0707 2.44996 14.1077 2.44518C14.1987 2.43392 14.3422 2.4184 14.5199 2.39978C14.8284 2.37029 15.3008 2.33524 15.7999 2.33524C16.6205 2.33524 17.286 2.42745 17.8339 2.61681L17.8623 2.62677L17.8891 2.63725C19.1831 3.12615 19.6982 3.688 20.1935 4.31853C20.3544 4.52185 20.4681 4.66723 20.7044 4.87857L20.7619 4.92979L20.8154 4.98346C20.8637 5.03119 20.9155 5.07504 20.9707 5.11462C21.1928 5.28651 21.5651 5.57455 21.8953 6.11816L21.9457 6.20133L21.9885 6.2885C22.4671 7.26501 22.3133 8.17583 22.2213 8.71996L22.2153 8.75695C22.1541 9.13268 22.047 9.49936 21.8963 9.84883V9.85155C21.8547 9.94196 21.8258 10.0377 21.8108 10.1361C21.7979 10.2048 21.7899 10.26 21.7821 10.3212L21.7756 10.371C21.7412 10.6849 21.6725 10.9941 21.571 11.293C21.4179 11.7702 21.1888 12.2194 20.8928 12.6234C20.4556 13.247 19.9503 13.6857 19.3415 13.9644C19.1935 14.0319 19.0671 14.1389 18.9763 14.2738C18.8854 14.4086 18.8335 14.5658 18.8264 14.7282C18.8236 14.7948 18.8224 14.8495 18.8244 14.88C18.8544 15.3491 18.8884 15.8807 18.7839 16.4283C18.6162 17.3341 18.2326 17.9429 17.9443 18.3899C17.9443 18.3899 16.6216 20.2309 15.4179 20.5984L15.2883 20.6389L15.1492 20.6632C14.9149 20.7048 14.6775 20.7254 14.4395 20.7246C14.3945 20.7246 14.3483 20.7246 14.2988 20.7233H14.2944C14.2625 20.7233 14.2279 20.7233 14.1887 20.7233C14.1415 20.7233 14.0645 20.7233 13.9449 20.7316L13.9157 20.7335H13.8868C13.4262 20.7501 12.991 20.7657 12.8699 20.7893C12.8053 20.7994 12.7422 20.8179 12.6823 20.8445C12.001 21.143 11.1077 21.2827 9.87522 21.2827Z" stroke="url(#paint5_linear_6_5)" stroke-width="0.11091" stroke-miterlimit="10"/>
<path d="M9.87534 20.2103C9.17962 20.2103 8.47563 20.1629 7.8786 20.1164L7.84665 20.114L7.81471 20.1095C7.65135 20.087 7.4964 20.07 7.34624 20.0537C6.83819 19.9984 6.31282 19.9413 5.74023 19.6728L5.70427 19.6556L5.67103 19.6371C4.57139 19.0203 4.16293 18.099 3.76677 17.2069C3.7105 17.0805 3.6523 16.9496 3.59216 16.8194C3.45803 16.5544 3.3631 16.2701 3.27786 16.0009L3.27243 15.9843L3.26764 15.9674C2.93757 14.7932 3.02151 14.1937 3.64311 13.2944L3.66109 13.2677L3.68037 13.2427C3.75331 13.1497 3.81966 13.0628 3.88343 12.9788C4.1822 12.5869 4.44049 12.2482 5.01929 11.714L5.02084 11.7123C5.06339 11.6719 5.09314 11.6199 5.10672 11.5627C5.1203 11.5057 5.11694 11.4458 5.09728 11.3905L4.99303 11.0931C4.97208 10.9993 4.95734 10.9042 4.94906 10.8085V10.8053L4.94259 10.7248L4.94466 10.6659C4.96587 10.0198 5.30578 9.51047 5.53044 9.17328C5.56562 9.11961 5.59912 9.07058 5.62511 9.02868L5.64659 8.9944L5.67077 8.96194C5.79015 8.80104 5.98403 8.35559 6.08595 8.07958C6.11273 7.99461 6.18141 7.76632 6.23857 7.6009C6.27919 7.47634 6.30557 7.34778 6.31708 7.21728C6.35084 6.89445 6.42495 6.57692 6.5376 6.27245L6.54291 6.25745L6.54886 6.2427C6.59839 6.1153 6.63332 6.01067 6.66707 5.90926C6.75697 5.6392 6.85863 5.33293 7.14149 4.98397L7.1984 4.91529L7.25389 4.86524C7.87563 4.30041 8.55711 4.18659 9.08275 4.1518H9.09374H9.11095C9.14044 4.1518 9.16992 4.14986 9.19916 4.14986C9.71069 4.14986 10.1039 4.35965 10.364 4.49856L10.4246 4.53076L10.4337 4.53555C10.5051 4.57422 10.5678 4.60798 10.626 4.63669C10.7877 4.71779 10.9734 4.7368 11.1482 4.69037C11.5044 4.59453 12.0601 4.38383 12.4339 4.17831L12.4417 4.17379C12.8349 3.94576 13.4271 3.6025 14.1212 3.52631C14.1649 3.51933 14.2068 3.51429 14.2462 3.50911C14.3267 3.49902 14.4607 3.48234 14.6246 3.46759C14.91 3.44082 15.3458 3.40784 15.8026 3.40784C16.5021 3.40784 17.0527 3.48079 17.4861 3.63043L17.5003 3.63548L17.5148 3.64091C18.553 4.03319 18.9317 4.44385 19.3535 4.9819C19.5252 5.20049 19.6874 5.40691 19.9951 5.68085L20.0237 5.70763L20.0506 5.7344C20.1338 5.81834 20.2234 5.89556 20.3187 5.9654C20.5033 6.10832 20.7562 6.30414 20.9834 6.67793L21.0086 6.71958L21.0301 6.76329C21.3564 7.42978 21.2478 8.07389 21.1685 8.54404L21.1623 8.58116C21.1148 8.87774 21.0297 9.16707 20.9093 9.44231C20.8391 9.60075 20.7892 9.76747 20.7608 9.93845C20.7421 10.0377 20.7311 10.1153 20.7219 10.187L20.7154 10.238C20.6897 10.4812 20.637 10.7206 20.5585 10.952C20.4395 11.3276 20.2596 11.6809 20.0259 11.9979C19.6317 12.5639 19.1945 12.9129 18.6138 13.0976C18.3356 13.1857 18.0962 13.367 17.936 13.6109L17.89 13.6818L17.839 13.74C17.6915 13.9079 17.7331 14.5585 17.7586 14.9469C17.7854 15.373 17.8141 15.8137 17.7344 16.2286C17.6035 16.9379 17.2997 17.4167 17.0277 17.8377C17.0277 17.8377 16.0177 19.2949 15.1064 19.5717L15.04 19.5926L14.9703 19.6047C14.7967 19.6358 14.6207 19.6511 14.4444 19.6503C14.4047 19.6503 14.3639 19.6503 14.3207 19.6503C14.2825 19.6503 14.2403 19.6503 14.1936 19.6503C14.1317 19.6503 14.0327 19.6503 13.882 19.6608H13.8675H13.8531C13.2418 19.683 12.873 19.6961 12.6692 19.7358C12.532 19.7601 12.3981 19.8001 12.2701 19.8552C11.7243 20.0972 10.9621 20.2103 9.87534 20.2103Z" stroke="url(#paint6_linear_6_5)" stroke-width="0.11091" stroke-miterlimit="10"/>
</g>
</g>
</g>
<defs>
<filter id="filter0_i_6_5" x="-2.35396" y="-2.19072" width="29.0686" height="27.7211" filterUnits="userSpaceOnUse" color-interpolation-filters="sRGB">
<feFlood flood-opacity="0" result="BackgroundImageFix"/>
<feBlend mode="normal" in="SourceGraphic" in2="BackgroundImageFix" result="shape"/>
<feColorMatrix in="SourceAlpha" type="matrix" values="0 0 0 0 0 0 0 0 0 0 0 0 0 0 0 0 0 0 127 0" result="hardAlpha"/>
<feOffset dx="0.0341263" dy="0.0511894"/>
<feGaussianBlur stdDeviation="0.0426578"/>
<feComposite in2="hardAlpha" operator="arithmetic" k2="-1" k3="1"/>
<feColorMatrix type="matrix" values="0 0 0 0 0 0 0 0 0 0 0 0 0 0 0 0 0 0 0.12 0"/>
<feBlend mode="normal" in2="shape" result="effect1_innerShadow_6_5"/>
</filter>
<radialGradient id="paint0_radial_6_5" cx="0" cy="0" r="1" gradientUnits="userSpaceOnUse" gradientTransform="translate(12 13.2576) rotate(90) scale(13.4817)">
<stop offset="0.166667" stop-color="#073183"/>
<stop offset="1" stop-color="#0054F9"/>
</radialGradient>
<linearGradient id="paint1_linear_6_5" x1="-2.28568" y1="-2.12247" x2="25.2155" y2="26.7416" gradientUnits="userSpaceOnUse">
<stop offset="0.205697" stop-color="#89D0FF"/>
<stop offset="0.398413" stop-color="#EBBF9A"/>
<stop offset="0.601546" stop-color="#EB8280"/>
<stop offset="0.841139" stop-color="#A281FF"/>
</linearGradient>
<linearGradient id="paint2_linear_6_5" x1="-1.21475" y1="-0.88713" x2="24.1383" y2="25.8312" gradientUnits="userSpaceOnUse">
<stop offset="0.205697" stop-color="#89D0FF"/>
<stop offset="0.398413" stop-color="#EBBF9A"/>
<stop offset="0.601546" stop-color="#EB80DA"/>
<stop offset="0.841139" stop-color="#A281FF"/>
</linearGradient>
<linearGradient id="paint3_linear_6_5" x1="-0.139681" y1="0.185861" x2="23.0649" y2="24.7579" gradientUnits="userSpaceOnUse">
<stop offset="0.205697" stop-color="#89D0FF"/>
<stop offset="0.398413" stop-color="#EBBF9A"/>
<stop offset="0.601546" stop-color="#EB8280"/>
<stop offset="0.841139" stop-color="#A281FF"/>
</linearGradient>
<linearGradient id="paint4_linear_6_5" x1="0.933324" y1="1.2626" x2="21.9845" y2="23.6818" gradientUnits="userSpaceOnUse">
<stop offset="0.205697" stop-color="#89D0FF"/>
<stop offset="0.398413" stop-color="#EBBF9A"/>
<stop offset="0.601546" stop-color="#EB80E7"/>
<stop offset="0.841139" stop-color="#A281FF"/>
</linearGradient>
<linearGradient id="paint5_linear_6_5" x1="2.00607" y1="2.33524" x2="20.9079" y2="22.5999" gradientUnits="userSpaceOnUse">
<stop offset="0.205697" stop-color="#89D0FF"/>
<stop offset="0.398413" stop-color="#EBBF9A"/>
<stop offset="0.601546" stop-color="#EB80D3"/>
<stop offset="0.841139" stop-color="#A281FF"/>
</linearGradient>
<linearGradient id="paint6_linear_6_5" x1="3.07751" y1="3.40784" x2="19.8283" y2="21.5261" gradientUnits="userSpaceOnUse">
<stop offset="0.205697" stop-color="#89D0FF"/>
<stop offset="0.398413" stop-color="#EBBF9A"/>
<stop offset="0.601546" stop-color="#A280EB"/>
<stop offset="0.841139" stop-color="#A281FF"/>
</linearGradient>
<clipPath id="clip0_6_5">
<rect width="24" height="24" fill="white"/>
</clipPath>
</defs>
</svg>
