<svg width="24" height="24" viewBox="0 0 24 24" fill="none" xmlns="http://www.w3.org/2000/svg">
<g clip-path="url(#clip0_6_7)">
<path d="M12 24C18.6274 24 24 18.6274 24 12C24 5.37258 18.6274 0 12 0C5.37258 0 0 5.37258 0 12C0 18.6274 5.37258 24 12 24Z" fill="#627EEA"/>
<path fill-rule="evenodd" clip-rule="evenodd" d="M12 23C18.0751 23 23 18.0751 23 12C23 5.92487 18.0751 1 12 1C5.92487 1 1 5.92487 1 12C1 18.0751 5.92487 23 12 23ZM21.7633 9.83696C21.8081 10.0393 21.6723 10.2349 21.4684 10.2721C21.2645 10.3093 21.0699 10.174 21.0245 9.9718C20.7298 8.66086 20.1527 7.42828 19.3317 6.36085C18.4344 5.19417 17.2716 4.25848 15.9399 3.63153C14.6083 3.00458 13.1462 2.70447 11.6752 2.75615C10.3294 2.80343 9.01173 3.14393 7.81359 3.75208C7.6288 3.84587 7.40048 3.78206 7.29927 3.60122C7.19806 3.42039 7.26231 3.19107 7.44681 3.09672C8.74938 2.43057 10.1837 2.05764 11.6489 2.00617C13.2392 1.9503 14.8199 2.27475 16.2596 2.95257C17.6993 3.63038 18.9564 4.64199 19.9266 5.90333C20.8204 7.06542 21.4468 8.40857 21.7633 9.83696ZM3.80735 17.0514C3.63096 17.1602 3.57554 17.3918 3.69084 17.564C4.35075 18.5495 5.18131 19.4106 6.14436 20.1063C7.10741 20.8019 8.18589 21.3198 9.32884 21.6366C9.52854 21.692 9.73099 21.5666 9.77882 21.365C9.82664 21.1633 9.7017 20.9619 9.50216 20.9059C8.45505 20.6122 7.46695 20.1359 6.58379 19.4979C5.70064 18.86 4.93794 18.0716 4.3301 17.1698C4.21427 16.998 3.98375 16.9427 3.80735 17.0514ZM11.8863 6.09064C11.9599 5.96921 12.1414 5.96992 12.2139 6.09199L15.8407 12.1955C15.8912 12.2804 15.864 12.3889 15.7789 12.4418L12.1526 14.6971C12.0908 14.7355 12.0116 14.7359 11.9494 14.6979L8.25386 12.4421C8.16725 12.3892 8.13961 12.2793 8.19141 12.1937L11.8863 6.09064ZM11.9567 15.695C11.9879 15.7143 12.0279 15.7142 12.059 15.6946L15.8531 13.3168C15.9398 13.2624 16.0408 13.3625 15.983 13.4454L12.1172 18.5311C12.0798 18.5847 11.9983 18.5849 11.9606 18.5314L8.01727 13.471C7.95913 13.3885 8.05947 13.2881 8.14638 13.3417L11.9567 15.695Z" fill="#F3F5FA"/>
</g>
<defs>
<clipPath id="clip0_6_7">
<rect width="24" height="24" fill="white"/>
</clipPath>
</defs>
</svg>
